<mxfile host="app.diagrams.net" modified="2024-01-14T16:25:31.617Z" agent="Mozilla/5.0 (Windows NT 10.0; Win64; x64) AppleWebKit/537.36 (KHTML, like Gecko) Chrome/120.0.0.0 Safari/537.36 Edg/120.0.0.0" etag="-tC6BW4OexiNm_CdGXyg" version="22.1.18" type="github">
  <diagram name="第 1 页" id="CqQnix17lk4yUb3VdyT7">
    <mxGraphModel dx="301" dy="175" grid="1" gridSize="1" guides="1" tooltips="1" connect="1" arrows="1" fold="1" page="1" pageScale="1" pageWidth="827" pageHeight="1169" background="#ffffff" math="0" shadow="0">
      <root>
        <mxCell id="0" />
        <mxCell id="1" parent="0" />
        <mxCell id="hR0jhwuUxT8upjmm4SGZ-49" value="" style="endArrow=none;html=1;rounded=0;curved=1;strokeColor=#E6E6E6;targetPerimeterSpacing=10;endSize=10;metaEdit=0;sourcePerimeterSpacing=100;strokeWidth=2;" edge="1" parent="1">
          <mxGeometry width="50" height="50" relative="1" as="geometry">
            <mxPoint x="511" y="387" as="sourcePoint" />
            <mxPoint x="672" y="350" as="targetPoint" />
            <Array as="points">
              <mxPoint x="534" y="386" />
              <mxPoint x="600" y="309" />
              <mxPoint x="622" y="298" />
              <mxPoint x="644" y="309" />
            </Array>
          </mxGeometry>
        </mxCell>
        <mxCell id="hR0jhwuUxT8upjmm4SGZ-48" value="" style="endArrow=none;html=1;rounded=0;curved=1;strokeColor=#e6e6e6;endSize=15;targetPerimeterSpacing=1;sourcePerimeterSpacing=10;startSize=15;shadow=0;arcSize=25;strokeWidth=2;" edge="1" parent="1">
          <mxGeometry width="50" height="50" relative="1" as="geometry">
            <mxPoint x="358" y="438" as="sourcePoint" />
            <mxPoint x="569" y="426" as="targetPoint" />
            <Array as="points">
              <mxPoint x="378" y="398" />
              <mxPoint x="428" y="368" />
              <mxPoint x="478" y="398" />
              <mxPoint x="528" y="418" />
            </Array>
          </mxGeometry>
        </mxCell>
        <mxCell id="hR0jhwuUxT8upjmm4SGZ-33" value="" style="endArrow=none;html=1;rounded=0;curved=1;strokeColor=#E6E6E6;targetPerimeterSpacing=1;strokeWidth=2;" edge="1" parent="1">
          <mxGeometry width="50" height="50" relative="1" as="geometry">
            <mxPoint x="426" y="416" as="sourcePoint" />
            <mxPoint x="614" y="401" as="targetPoint" />
            <Array as="points">
              <mxPoint x="471" y="373" />
              <mxPoint x="513" y="317" />
              <mxPoint x="573" y="381" />
            </Array>
          </mxGeometry>
        </mxCell>
        <mxCell id="hR0jhwuUxT8upjmm4SGZ-4" value="" style="endArrow=classic;html=1;rounded=0;" edge="1" parent="1">
          <mxGeometry width="50" height="50" relative="1" as="geometry">
            <mxPoint x="329" y="475" as="sourcePoint" />
            <mxPoint x="662" y="475" as="targetPoint" />
          </mxGeometry>
        </mxCell>
        <mxCell id="hR0jhwuUxT8upjmm4SGZ-5" value="" style="endArrow=classic;html=1;rounded=0;" edge="1" parent="1">
          <mxGeometry width="50" height="50" relative="1" as="geometry">
            <mxPoint x="329" y="475" as="sourcePoint" />
            <mxPoint x="329" y="281" as="targetPoint" />
            <Array as="points" />
          </mxGeometry>
        </mxCell>
        <mxCell id="hR0jhwuUxT8upjmm4SGZ-6" value="" style="endArrow=none;html=1;rounded=0;curved=1;strokeColor=#31BFCF;endSize=15;targetPerimeterSpacing=1;sourcePerimeterSpacing=10;startSize=15;shadow=0;arcSize=25;strokeWidth=2;" edge="1" parent="1">
          <mxGeometry width="50" height="50" relative="1" as="geometry">
            <mxPoint x="340" y="440" as="sourcePoint" />
            <mxPoint x="551" y="428" as="targetPoint" />
            <Array as="points">
              <mxPoint x="360" y="400" />
              <mxPoint x="410" y="370" />
              <mxPoint x="460" y="400" />
              <mxPoint x="510" y="420" />
            </Array>
          </mxGeometry>
        </mxCell>
        <mxCell id="hR0jhwuUxT8upjmm4SGZ-7" value="" style="endArrow=none;html=1;rounded=0;curved=1;strokeColor=#FF6933;targetPerimeterSpacing=1;strokeWidth=2;" edge="1" parent="1">
          <mxGeometry width="50" height="50" relative="1" as="geometry">
            <mxPoint x="405" y="413" as="sourcePoint" />
            <mxPoint x="594" y="397" as="targetPoint" />
            <Array as="points">
              <mxPoint x="451" y="372" />
              <mxPoint x="493" y="316" />
              <mxPoint x="553" y="380" />
            </Array>
          </mxGeometry>
        </mxCell>
        <mxCell id="hR0jhwuUxT8upjmm4SGZ-8" value="" style="endArrow=none;html=1;rounded=0;curved=1;strokeColor=#33AD33;targetPerimeterSpacing=10;endSize=10;metaEdit=0;sourcePerimeterSpacing=100;strokeWidth=2;" edge="1" parent="1">
          <mxGeometry width="50" height="50" relative="1" as="geometry">
            <mxPoint x="494" y="386" as="sourcePoint" />
            <mxPoint x="655" y="349" as="targetPoint" />
            <Array as="points">
              <mxPoint x="517" y="385" />
              <mxPoint x="583" y="308" />
              <mxPoint x="605" y="297" />
              <mxPoint x="627" y="308" />
            </Array>
          </mxGeometry>
        </mxCell>
        <mxCell id="hR0jhwuUxT8upjmm4SGZ-10" value="" style="endArrow=none;html=1;rounded=0;strokeColor=#1E9FD6;dashed=1;strokeWidth=2;" edge="1" parent="1">
          <mxGeometry width="50" height="50" relative="1" as="geometry">
            <mxPoint x="405" y="475" as="sourcePoint" />
            <mxPoint x="405" y="377" as="targetPoint" />
          </mxGeometry>
        </mxCell>
        <mxCell id="hR0jhwuUxT8upjmm4SGZ-11" value="" style="endArrow=none;html=1;rounded=0;strokeColor=#FF6933;dashed=1;strokeWidth=2;" edge="1" parent="1">
          <mxGeometry width="50" height="50" relative="1" as="geometry">
            <mxPoint x="495" y="474" as="sourcePoint" />
            <mxPoint x="493" y="330" as="targetPoint" />
          </mxGeometry>
        </mxCell>
        <mxCell id="hR0jhwuUxT8upjmm4SGZ-12" value="" style="endArrow=none;html=1;rounded=0;strokeColor=#33AD33;dashed=1;strokeWidth=2;" edge="1" parent="1">
          <mxGeometry width="50" height="50" relative="1" as="geometry">
            <mxPoint x="605" y="471" as="sourcePoint" />
            <mxPoint x="605" y="299" as="targetPoint" />
          </mxGeometry>
        </mxCell>
        <mxCell id="hR0jhwuUxT8upjmm4SGZ-13" value="" style="endArrow=none;html=1;rounded=0;strokeColor=#000000;dashed=1;strokeWidth=2;exitDx=0;exitDy=0;exitPerimeter=0;" edge="1" parent="1" source="hR0jhwuUxT8upjmm4SGZ-46">
          <mxGeometry width="50" height="50" relative="1" as="geometry">
            <mxPoint x="532" y="472" as="sourcePoint" />
            <mxPoint x="522" y="348" as="targetPoint" />
          </mxGeometry>
        </mxCell>
        <mxCell id="hR0jhwuUxT8upjmm4SGZ-14" value="&lt;font style=&quot;font-size: 14px;&quot; face=&quot;Times New Roman&quot;&gt;low freq. ent.&lt;/font&gt;" style="text;strokeColor=none;align=center;fillColor=none;html=1;verticalAlign=middle;whiteSpace=wrap;rounded=0;" vertex="1" parent="1">
          <mxGeometry x="345" y="347" width="100" height="30" as="geometry" />
        </mxCell>
        <mxCell id="hR0jhwuUxT8upjmm4SGZ-15" value="&lt;font style=&quot;font-size: 14px;&quot; face=&quot;Times New Roman&quot;&gt;mid freq. ent.&lt;/font&gt;" style="text;strokeColor=none;align=center;fillColor=none;html=1;verticalAlign=middle;whiteSpace=wrap;rounded=0;" vertex="1" parent="1">
          <mxGeometry x="444" y="300" width="100" height="30" as="geometry" />
        </mxCell>
        <mxCell id="hR0jhwuUxT8upjmm4SGZ-16" value="&lt;font style=&quot;font-size: 14px;&quot; face=&quot;Times New Roman&quot;&gt;high freq. ent.&lt;/font&gt;" style="text;strokeColor=none;align=center;fillColor=none;html=1;verticalAlign=middle;whiteSpace=wrap;rounded=0;" vertex="1" parent="1">
          <mxGeometry x="563" y="277" width="100" height="30" as="geometry" />
        </mxCell>
        <mxCell id="hR0jhwuUxT8upjmm4SGZ-17" value="" style="endArrow=none;html=1;rounded=0;strokeColor=#FF6933;dashed=1;strokeWidth=2;" edge="1" parent="1">
          <mxGeometry width="50" height="50" relative="1" as="geometry">
            <mxPoint x="379" y="284" as="sourcePoint" />
            <mxPoint x="332" y="284" as="targetPoint" />
          </mxGeometry>
        </mxCell>
        <mxCell id="hR0jhwuUxT8upjmm4SGZ-18" value="" style="endArrow=none;html=1;rounded=0;strokeColor=#33AD33;dashed=1;strokeWidth=2;" edge="1" parent="1">
          <mxGeometry width="50" height="50" relative="1" as="geometry">
            <mxPoint x="379" y="294" as="sourcePoint" />
            <mxPoint x="332" y="294" as="targetPoint" />
          </mxGeometry>
        </mxCell>
        <mxCell id="hR0jhwuUxT8upjmm4SGZ-19" value="" style="endArrow=none;html=1;rounded=0;strokeColor=#31BFCF;dashed=1;strokeWidth=2;" edge="1" parent="1">
          <mxGeometry width="50" height="50" relative="1" as="geometry">
            <mxPoint x="379" y="305" as="sourcePoint" />
            <mxPoint x="332" y="305" as="targetPoint" />
          </mxGeometry>
        </mxCell>
        <mxCell id="hR0jhwuUxT8upjmm4SGZ-20" value="&lt;font face=&quot;Times New Roman&quot;&gt;best dim fot ent.&lt;/font&gt;" style="text;strokeColor=none;align=center;fillColor=none;html=1;verticalAlign=middle;whiteSpace=wrap;rounded=0;" vertex="1" parent="1">
          <mxGeometry x="374" y="278" width="100" height="30" as="geometry" />
        </mxCell>
        <mxCell id="hR0jhwuUxT8upjmm4SGZ-21" value="" style="endArrow=none;html=1;rounded=0;strokeColor=#FFFFFF;dashed=1;strokeWidth=2;" edge="1" parent="1">
          <mxGeometry width="50" height="50" relative="1" as="geometry">
            <mxPoint x="519" y="294" as="sourcePoint" />
            <mxPoint x="472" y="294" as="targetPoint" />
          </mxGeometry>
        </mxCell>
        <mxCell id="hR0jhwuUxT8upjmm4SGZ-22" value="&lt;font face=&quot;Times New Roman&quot;&gt;fixed dim&lt;/font&gt;" style="text;strokeColor=none;align=center;fillColor=none;html=1;verticalAlign=middle;whiteSpace=wrap;rounded=0;" vertex="1" parent="1">
          <mxGeometry x="489" y="278" width="100" height="30" as="geometry" />
        </mxCell>
        <mxCell id="hR0jhwuUxT8upjmm4SGZ-24" value="" style="endArrow=none;html=1;rounded=0;strokeColor=#000000;dashed=1;strokeWidth=2;" edge="1" parent="1">
          <mxGeometry width="50" height="50" relative="1" as="geometry">
            <mxPoint x="468" y="294" as="sourcePoint" />
            <mxPoint x="513" y="294" as="targetPoint" />
          </mxGeometry>
        </mxCell>
        <mxCell id="hR0jhwuUxT8upjmm4SGZ-34" value="&lt;font face=&quot;Times New Roman&quot;&gt;Performance&lt;/font&gt;" style="text;strokeColor=none;align=center;fillColor=none;html=1;verticalAlign=middle;whiteSpace=wrap;rounded=0;rotation=-90;" vertex="1" parent="1">
          <mxGeometry x="265" y="362" width="100" height="30" as="geometry" />
        </mxCell>
        <mxCell id="hR0jhwuUxT8upjmm4SGZ-43" value="" style="endArrow=none;html=1;rounded=0;strokeColor=#000000;dashed=1;strokeWidth=2;exitX=0.715;exitY=-0.022;exitDx=0;exitDy=0;exitPerimeter=0;" edge="1" parent="1" source="hR0jhwuUxT8upjmm4SGZ-37" target="hR0jhwuUxT8upjmm4SGZ-30">
          <mxGeometry width="50" height="50" relative="1" as="geometry">
            <mxPoint x="524" y="473" as="sourcePoint" />
            <mxPoint x="522" y="348" as="targetPoint" />
          </mxGeometry>
        </mxCell>
        <mxCell id="hR0jhwuUxT8upjmm4SGZ-37" value="&lt;font face=&quot;Times New Roman&quot;&gt;Dimension&lt;/font&gt;" style="text;strokeColor=none;align=center;fillColor=none;html=1;verticalAlign=middle;whiteSpace=wrap;rounded=0;" vertex="1" parent="1">
          <mxGeometry x="452" y="474" width="100" height="30" as="geometry" />
        </mxCell>
        <mxCell id="hR0jhwuUxT8upjmm4SGZ-45" value="" style="endArrow=none;html=1;rounded=0;strokeColor=#000000;dashed=1;strokeWidth=2;exitDx=0;exitDy=0;exitPerimeter=0;" edge="1" parent="1" source="hR0jhwuUxT8upjmm4SGZ-30" target="hR0jhwuUxT8upjmm4SGZ-44">
          <mxGeometry width="50" height="50" relative="1" as="geometry">
            <mxPoint x="523" y="421" as="sourcePoint" />
            <mxPoint x="522" y="348" as="targetPoint" />
          </mxGeometry>
        </mxCell>
        <mxCell id="hR0jhwuUxT8upjmm4SGZ-30" value="" style="shape=waypoint;fillStyle=solid;size=6;pointerEvents=1;points=[];fillColor=none;resizable=0;rotatable=0;perimeter=centerPerimeter;snapToPoint=1;strokeColor=#31BFCF;" vertex="1" parent="1">
          <mxGeometry x="513" y="411" width="20" height="20" as="geometry" />
        </mxCell>
        <mxCell id="hR0jhwuUxT8upjmm4SGZ-47" value="" style="endArrow=none;html=1;rounded=0;strokeColor=#000000;dashed=1;strokeWidth=2;exitDx=0;exitDy=0;exitPerimeter=0;" edge="1" parent="1" source="hR0jhwuUxT8upjmm4SGZ-44" target="hR0jhwuUxT8upjmm4SGZ-46">
          <mxGeometry width="50" height="50" relative="1" as="geometry">
            <mxPoint x="522" y="374" as="sourcePoint" />
            <mxPoint x="522" y="348" as="targetPoint" />
          </mxGeometry>
        </mxCell>
        <mxCell id="hR0jhwuUxT8upjmm4SGZ-44" value="" style="shape=waypoint;fillStyle=solid;size=6;pointerEvents=1;points=[];fillColor=none;resizable=0;rotatable=0;perimeter=centerPerimeter;snapToPoint=1;strokeColor=#31BFCF;" vertex="1" parent="1">
          <mxGeometry x="512" y="364" width="20" height="20" as="geometry" />
        </mxCell>
        <mxCell id="hR0jhwuUxT8upjmm4SGZ-46" value="" style="shape=waypoint;fillStyle=solid;size=6;pointerEvents=1;points=[];fillColor=none;resizable=0;rotatable=0;perimeter=centerPerimeter;snapToPoint=1;strokeColor=#FF6933;" vertex="1" parent="1">
          <mxGeometry x="512" y="339" width="20" height="20" as="geometry" />
        </mxCell>
      </root>
    </mxGraphModel>
  </diagram>
</mxfile>
